<svg width="700.000000pt" height="669.000000pt" viewBox="0 0 700.000000 669.000000" xmlns="http://www.w3.org/2000/svg">
  <g transform="translate(0.000000,669.000000) scale(0.100000,-0.100000)" fill="#020202" stroke="none">
    <path d="M0 3345 l0 -3345 3500 0 3500 0 0 3345 0 3345 -3500 0 -3500 0 0
-3345z m5362 2614 c42 -21 96 -51 120 -66 58 -38 168 -126 193 -155 74 -87
116 -154 142 -228 l13 -35 0 -95 c0 -52 -5 -102 -10 -110 l-9 -15 -18 11 -18
11 -6 94 c-7 106 -15 143 -51 220 -55 120 -205 240 -418 335 -71 31 -89 48
-90 81 l0 22 38 -16 c20 -8 72 -33 114 -54z m-3548 38 l25 -23 -19 -90 c-20
-94 -36 -154 -51 -191 -47 -119 -61 -147 -105 -210 -24 -33 -63 -78 -86 -98
-47 -40 -181 -109 -200 -103 -7 3 13 17 45 32 l57 28 62 67 63 66 39 80 c21
44 43 89 47 100 18 41 59 211 59 243 l0 32 -11 0 c-22 0 -182 -81 -252 -127
-40 -26 -102 -77 -138 -113 l-66 -65 -33 -68 c-37 -75 -49 -82 -27 -15 57 165
195 299 431 416 66 34 124 61 128 61 4 1 18 -9 32 -22z m-769 -300 c25 -53 55
-122 66 -154 l20 -58 15 -138 15 -138 -12 -42 c-7 -23 -16 -46 -21 -51 -4 -6
-8 -23 -8 -38 l0 -28 13 0 c7 0 29 16 48 36 29 32 158 124 173 124 2 0 37 15
78 33 40 19 89 40 108 47 19 7 39 17 45 22 5 4 19 8 31 8 13 0 26 5 29 10 10
16 35 12 35 -6 0 -9 9 -18 20 -21 11 -3 20 -9 20 -14 0 -9 -46 -152 -59 -184
-34 -81 -96 -199 -127 -241 -44 -58 -143 -148 -185 -166 l-29 -13 0 -20 c0
-11 9 -26 20 -33 l20 -12 0 -53 c0 -69 -26 -257 -45 -329 -8 -31 -26 -81 -40
-109 -14 -29 -25 -61 -25 -72 l0 -18 18 3 c9 1 28 -8 42 -22 l24 -24 8 -45
c22 -121 29 -174 34 -264 l7 -97 -13 -63 c-21 -111 -67 -201 -141 -281 -58
-62 -158 -131 -180 -124 l-12 4 60 47 c33 27 74 65 91 86 37 46 83 139 101
202 l12 45 -5 174 c-3 96 -8 199 -11 228 l-7 52 -13 0 c-11 0 -73 -61 -135
-135 -55 -66 -106 -142 -142 -214 -20 -42 -38 -68 -38 -58 0 9 4 25 9 35 5 9
14 31 21 47 34 82 101 186 160 252 17 18 30 37 30 43 0 18 -38 11 -67 -13 -37
-31 -141 -79 -162 -75 l-16 3 58 29 c105 51 197 164 244 297 32 93 43 155 50
292 l5 107 -16 0 c-9 0 -29 -8 -44 -17 -54 -34 -199 -153 -238 -195 -55 -60
-119 -155 -134 -201 -6 -21 -14 -36 -17 -33 -6 5 17 75 40 126 25 55 73 119
146 193 80 82 148 133 219 163 l42 19 0 17 0 17 -22 3 -23 3 50 25 c46 23 133
100 179 160 55 70 166 322 166 376 l0 26 -37 -7 c-21 -4 -42 -10 -48 -14 -5
-4 -28 -13 -50 -20 -111 -38 -256 -124 -330 -195 -47 -47 -77 -88 -112 -154
l-24 -47 6 29 c4 16 15 48 26 70 10 22 19 47 19 56 0 8 9 22 20 30 25 18 26
40 1 40 l-20 0 -6 -19 c-8 -27 -105 -131 -121 -131 -23 0 -16 18 26 74 22 28
54 83 72 122 l32 69 0 125 1 125 -13 50 c-8 28 -17 59 -22 70 -4 11 -14 36
-21 55 -6 19 -25 63 -40 98 -16 35 -32 74 -35 88 -3 13 -11 24 -18 24 -13 0
-126 -226 -126 -252 0 -9 -4 -20 -10 -23 -5 -3 -10 -3 -10 2 0 17 51 148 70
181 11 18 20 37 20 41 0 4 14 33 31 64 l30 56 30 -33 c16 -19 50 -77 74 -129z
m5047 129 c68 -82 166 -324 189 -468 l13 -78 -13 -77 c-7 -43 -17 -82 -22 -87
-5 -6 -9 -16 -9 -22 0 -20 -65 -126 -99 -161 -17 -18 -40 -33 -51 -33 l-21 0
11 20 c6 11 25 41 42 66 17 25 41 77 54 116 l24 70 0 109 c0 99 -10 172 -31
224 -4 11 -16 45 -27 75 -11 30 -31 80 -45 110 -14 30 -27 63 -31 73 -3 9 -14
17 -24 17 l-18 0 -31 -62 c-16 -35 -41 -89 -54 -121 -13 -32 -25 -54 -27 -47
-4 11 4 35 40 120 32 73 92 190 98 189 3 0 17 -15 32 -33z m-181 -329 l-11
-11 0 15 c0 9 3 19 7 23 4 4 9 2 11 -4 3 -7 -1 -17 -7 -23z m-5130 -40 l-11
-11 0 15 c0 20 13 34 18 19 3 -7 -1 -17 -7 -23z m5115 -23 c-4 -9 -9 -15 -11
-12 -3 3 -3 13 1 22 4 9 9 15 11 12 3 -3 3 -13 -1 -22z m-4686 2 c0 -3 -5 -8
-12 -12 l-11 -7 7 11 c7 12 16 16 16 8z m-447 -51 c-3 -9 -8 -14 -10 -11 -3 3
-2 9 2 15 9 16 15 13 8 -4z m4762 -115 c233 -105 288 -146 404 -306 52 -71 69
-110 88 -204 l17 -81 -10 -17 -11 -17 -29 0 -29 0 -6 80 -6 80 -22 66 c-42
124 -131 211 -296 292 -49 24 -101 48 -115 52 -14 4 -29 11 -35 15 -5 4 -32
13 -59 21 -55 16 -96 49 -96 78 l0 20 78 -28 c42 -16 100 -38 127 -51z m-4185
0 c-20 -13 -33 -13 -25 0 3 6 14 10 23 10 l17 0 -15 -10z m-736 -187 c152
-166 251 -343 281 -501 l15 -79 -10 -54 c-16 -86 -38 -143 -80 -208 l-40 -61
-15 0 -15 0 0 21 c0 11 11 40 25 64 54 98 71 256 39 379 -20 81 -97 234 -156
311 -4 6 -18 24 -31 40 -13 17 -26 38 -30 48 -3 9 -15 17 -26 17 l-20 0 -7
-37 c-4 -21 -9 -33 -11 -26 -4 12 28 133 35 133 1 0 22 -21 46 -47z m5865 18
l29 -30 32 -133 32 -133 0 -131 1 -130 -13 -40 c-23 -73 -68 -159 -106 -203
-40 -46 -130 -121 -145 -121 -21 0 -6 25 51 84 l59 62 32 69 c37 78 48 126 56
240 l5 80 -11 70 c-6 38 -21 114 -34 167 l-22 98 -12 0 c-19 0 -163 -200 -210
-293 -24 -45 -43 -74 -43 -64 0 9 4 25 9 35 5 9 22 44 37 77 15 33 50 94 77
135 52 77 137 190 144 190 2 0 17 -13 32 -29z m-5953 -157 c-4 -9 -9 -15 -11
-12 -3 3 -3 13 1 22 4 9 9 15 11 12 3 -3 3 -13 -1 -22z m-25 -91 c-12 -20 -14
-14 -5 12 4 9 9 14 11 11 3 -2 0 -13 -6 -23z m5676 -200 c-4 -3 -7 0 -7 7 0 7
3 10 7 7 3 -4 3 -10 0 -14z m-449 -13 c10 0 28 -9 42 -20 14 -11 29 -20 33
-20 15 0 150 -105 213 -165 28 -27 106 -125 120 -150 6 -11 25 -45 42 -76 l30
-55 12 -64 12 -65 -7 -55 c-4 -30 -11 -59 -15 -65 -4 -5 -10 -21 -12 -35 l-3
-25 -19 -3 c-26 -5 -36 15 -25 52 14 49 11 168 -7 238 -20 81 -71 172 -135
242 -51 56 -182 163 -250 204 -19 12 -43 30 -53 41 l-18 20 8 12 8 13 4 -12
c2 -7 11 -12 20 -12z m439 -42 l-5 -13 -1 19 c-1 11 2 17 5 13 3 -3 4 -12 1
-19z m601 -393 c-23 -280 -95 -456 -235 -577 -59 -50 -156 -101 -182 -95 l-16
3 47 22 c25 12 75 50 110 85 l64 63 40 79 c48 97 87 238 98 360 3 33 9 70 12
83 l6 22 -23 0 -23 0 -113 -76 -113 -76 -71 -76 c-39 -42 -83 -101 -99 -131
-16 -31 -29 -48 -30 -38 0 9 4 25 9 35 4 9 21 43 37 76 l29 59 80 81 c71 71
123 110 290 217 l40 26 25 -26 26 -26 -8 -90z m-6348 61 c174 -112 360 -311
360 -386 0 -11 5 -20 10 -20 6 0 10 -5 10 -12 0 -6 9 -31 21 -55 l20 -42 -4
-83 c-3 -46 -8 -100 -12 -120 l-7 -38 -22 0 c-12 0 -26 4 -32 10 l-10 10 7 72
c4 40 5 102 2 138 l-5 65 -24 64 c-14 35 -38 83 -54 106 -54 79 -182 182 -352
284 l-38 23 0 29 0 29 43 -23 c23 -12 62 -36 87 -51z m5403 -313 c136 -141
230 -283 267 -402 l20 -63 0 -93 c0 -52 -4 -96 -9 -99 -4 -3 -11 -18 -14 -33
-3 -16 -16 -52 -29 -81 l-23 -52 -17 0 -18 0 0 24 c0 13 6 39 14 57 8 19 19
68 25 109 l10 75 -10 74 c-17 123 -71 238 -170 364 -72 91 -127 147 -143 147
l-16 0 0 28 c0 32 8 44 22 36 5 -3 46 -44 91 -91z m-122 -20 c-12 -20 -14 -14
-5 12 4 9 9 14 11 11 3 -2 0 -13 -6 -23z m-4771 -97 c0 -2 -7 -7 -16 -10 l-15
-6 6 10 c6 10 25 14 25 6z m5301 -43 c-12 -20 -14 -14 -5 12 4 9 9 14 11 11 3
-2 0 -13 -6 -23z m-5939 -213 c109 -22 210 -47 243 -61 215 -90 324 -178 382
-309 8 -19 28 -63 44 -98 42 -91 36 -132 -18 -132 l-23 0 0 28 c0 42 -27 140
-56 201 l-25 54 -58 56 -57 56 -64 29 c-112 50 -146 61 -245 82 -44 9 -96 20
-115 23 -19 3 -50 15 -67 26 l-33 19 0 18 0 18 20 0 c10 0 43 -5 72 -10z
m6541 -14 l24 -24 -29 -59 c-16 -32 -36 -68 -44 -80 -7 -12 -23 -39 -35 -60
-58 -103 -189 -240 -277 -289 -47 -26 -132 -58 -138 -52 -2 3 25 20 61 37 l66
33 69 68 c91 89 230 301 230 349 l0 21 -34 0 c-99 0 -277 -53 -401 -121 l-70
-38 -52 -53 c-28 -29 -64 -78 -80 -108 l-28 -55 -3 25 c-2 13 1 26 7 28 6 2
11 10 11 18 0 24 77 138 121 178 99 92 381 200 536 205 l42 1 24 -24z m-5876
-58 l-5 -13 -1 19 c-1 11 2 17 5 13 3 -3 4 -12 1 -19z m5368 12 c-3 -5 -14
-10 -23 -10 l-17 0 15 10 c20 13 33 13 25 0z m-4869 -160 c7 0 20 -15 27 -33
23 -54 64 -226 78 -325 l13 -92 -13 -78 c-7 -42 -17 -81 -22 -86 -5 -6 -9 -17
-9 -25 0 -9 -12 -41 -27 -71 l-28 -55 -72 -71 -73 -72 -25 -4 c-14 -3 -25 -3
-25 -1 0 2 29 35 64 72 64 68 102 130 131 213 l15 43 0 139 c0 76 -4 155 -10
175 -5 20 -19 75 -31 124 l-22 87 -18 0 -18 0 -28 -41 c-15 -22 -37 -53 -49
-67 -12 -15 -32 -47 -46 -72 -14 -25 -34 -61 -45 -80 -11 -19 -29 -60 -41 -90
-11 -30 -21 -49 -21 -41 -1 24 40 131 76 201 19 36 40 75 47 87 6 13 14 23 19
23 4 0 7 5 7 11 0 6 9 23 21 37 11 15 39 52 62 82 l42 54 3 -22 c2 -12 10 -22
18 -22z m4174 0 c102 -107 235 -336 265 -460 l17 -68 -5 -69 c-6 -81 -16 -133
-27 -133 -4 0 -10 -15 -14 -32 -4 -18 -18 -59 -33 -90 l-27 -58 -17 0 c-30 0
-30 17 0 82 16 35 35 91 42 126 l12 63 -6 89 c-7 96 -22 150 -68 250 -38 81
-160 270 -174 270 -6 0 -17 -6 -24 -12 l-14 -13 7 25 c4 14 10 35 13 48 3 12
7 22 10 22 2 0 22 -18 43 -40z m-85 -125 l-15 -40 6 35 c3 19 8 44 12 55 l6
20 3 -15 c2 -9 -3 -33 -12 -55z m-25 -92 l-12 -18 6 18 c3 10 6 24 7 30 l1 12
4 -12 c3 -7 0 -20 -6 -30z m564 -47 c-3 -15 -8 -25 -11 -23 -2 3 -1 17 3 31 3
15 8 25 11 23 2 -3 1 -17 -3 -31z m-5579 -111 c50 -7 108 -18 130 -24 22 -7
68 -18 102 -26 116 -26 192 -71 285 -170 34 -35 72 -103 99 -172 5 -13 13 -33
18 -45 5 -13 11 -30 14 -39 l5 -17 -24 -11 c-38 -17 -44 -14 -44 24 0 36 -7
58 -48 145 l-26 55 -51 50 c-52 52 -128 95 -211 120 -78 22 -229 45 -300 45
-65 0 -93 8 -126 38 l-18 15 11 14 11 13 42 -1 c22 0 82 -6 131 -14z m4891
-130 c57 -121 110 -286 118 -365 3 -36 2 -99 -2 -140 l-9 -75 -23 -50 c-43
-95 -123 -195 -155 -195 -8 0 -15 3 -15 7 0 4 20 36 44 72 119 181 127 377 24
641 -17 41 -39 94 -49 118 l-20 43 -16 -3 -16 -3 -47 -91 c-26 -49 -55 -111
-65 -137 -10 -26 -20 -45 -23 -43 -8 9 37 119 105 261 11 22 28 54 38 71 l18
30 25 -25 c14 -14 44 -66 68 -116z m1311 129 c3 -9 14 -19 24 -23 l19 -6 -42
-60 c-72 -106 -136 -181 -217 -257 l-79 -75 -76 -37 c-42 -21 -83 -36 -93 -34
l-17 3 64 32 65 32 76 73 c42 40 92 93 111 118 53 68 108 149 108 159 0 17
-25 19 -145 10 l-120 -8 -80 -21 c-43 -12 -108 -35 -144 -53 l-65 -31 -66 -66
-65 -65 -27 -55 -27 -55 -1 22 c0 12 17 54 37 94 l37 73 55 56 56 57 65 30
c36 17 83 34 105 38 37 6 88 20 125 33 50 18 127 29 213 31 l98 1 6 -16z
m-4881 -164 c85 -175 95 -203 114 -319 l12 -75 -12 -70 c-18 -103 -29 -135
-66 -196 -40 -64 -71 -101 -107 -124 l-25 -17 -7 10 c-3 6 13 36 35 67 23 30
53 80 66 110 l24 54 9 80 9 80 -9 76 c-11 97 -42 195 -96 307 -24 48 -43 94
-43 102 0 8 -7 15 -15 15 l-15 0 -46 -96 c-25 -52 -54 -119 -64 -147 -10 -29
-19 -44 -19 -35 -1 28 44 144 112 286 l30 63 29 -28 c16 -15 54 -79 84 -143z
m-669 53 c-4 -3 -7 0 -7 7 0 7 3 10 7 7 3 -4 3 -10 0 -14z m404 -290 c-12 -20
-14 -14 -5 12 4 9 9 14 11 11 3 -2 0 -13 -6 -23z m633 -114 c42 -45 97 -108
122 -140 54 -71 118 -194 108 -210 -3 -6 -2 -21 4 -32 5 -12 15 -42 22 -65
l11 -44 -7 -66 -7 -66 -29 -70 c-35 -87 -57 -105 -77 -67 l-10 19 20 41 20 42
10 82 c13 117 -1 206 -49 307 -32 68 -125 194 -206 278 l-60 62 -23 0 c-26 0
-28 8 -12 44 l12 25 37 -29 c21 -17 72 -67 114 -111z m2811 117 l27 -25 10
-108 c5 -59 8 -166 5 -238 l-6 -130 -16 -45 c-9 -25 -28 -70 -43 -100 l-27
-55 -55 -56 c-56 -57 -104 -94 -152 -118 -28 -15 -54 -7 -29 8 13 9 67 52 107
88 22 19 81 110 102 156 24 54 30 73 41 128 l12 57 -1 143 c0 79 -1 152 -1
162 0 31 -18 67 -32 67 -23 0 -202 -191 -249 -266 -46 -72 -73 -125 -81 -159
l-5 -20 -1 22 c-2 37 46 144 106 237 41 64 236 276 254 276 4 0 20 -11 34 -24z
m125 -21 l-8 -40 -1 27 c-1 25 8 62 14 56 2 -2 -1 -21 -5 -43z m780 -15 c0 -5
-4 -10 -10 -10 -5 0 -10 5 -10 10 0 6 5 10 10 10 6 0 10 -4 10 -10z m300 -70
c-20 -13 -33 -13 -25 0 3 6 14 10 23 10 l17 0 -15 -10z m-60 -65 c74 0 152 -4
172 -9 l37 -8 6 -19 c4 -10 14 -19 23 -19 l16 0 -64 -65 c-36 -36 -89 -85
-118 -108 -30 -23 -65 -52 -80 -64 -39 -33 -202 -115 -221 -110 l-16 3 37 16
c106 47 358 252 358 293 0 19 -32 25 -193 35 l-147 8 -64 -9 c-155 -22 -264
-85 -362 -209 -26 -33 -51 -60 -55 -60 -5 0 3 21 18 48 69 124 126 183 219
226 32 15 73 34 89 41 45 21 73 24 145 17 36 -4 126 -7 200 -7z m-4924 -20
c21 -9 55 -23 74 -32 39 -17 99 -62 150 -113 35 -35 100 -122 100 -135 0 -4 9
-20 20 -35 l20 -28 -43 -18 c-77 -32 -112 -44 -132 -43 l-20 1 15 4 c8 3 34
12 58 20 l42 16 0 23 c0 33 -38 100 -89 157 l-43 49 -82 38 -81 39 -72 11
c-93 14 -226 14 -331 -1 l-83 -11 -35 16 c-36 18 -42 30 -21 44 12 8 408 23
478 18 20 -2 54 -10 75 -20z m3304 -254 c0 -5 8 -17 17 -26 l17 -17 -12 -19
c-7 -10 -12 -26 -12 -34 0 -8 -4 -23 -9 -33 -4 -9 -21 -44 -37 -77 -49 -103
-114 -197 -188 -271 l-71 -71 -78 -37 c-42 -21 -83 -36 -90 -33 -6 2 6 12 28
22 73 34 147 100 227 202 42 55 158 275 158 301 l0 15 -57 -6 c-73 -7 -227
-58 -318 -105 l-70 -36 -73 -72 -72 -72 -26 -57 c-14 -31 -28 -55 -30 -53 -5
6 24 88 49 137 45 90 174 200 293 252 101 43 278 95 337 98 9 1 17 -3 17 -8z
m-1930 -17 c64 -15 116 -30 155 -44 11 -5 46 -18 77 -30 162 -62 325 -220 376
-363 18 -52 41 -169 35 -179 -2 -5 -20 -8 -39 -8 l-34 0 0 46 c0 60 -14 112
-55 199 l-32 71 -57 51 -56 51 -77 37 c-114 55 -104 52 -317 107 l-48 13 -26
33 -25 32 29 0 c16 0 58 -7 94 -16z m3295 -124 c-3 -5 -16 -10 -28 -10 l-22 0
15 10 c20 13 43 13 35 0z m-373 -31 c9 -5 28 -9 42 -9 14 0 28 -4 31 -10 3 -5
20 -10 37 -10 18 0 45 -4 62 -9 17 -5 59 -18 94 -27 l63 -17 34 -33 35 -32
-93 -60 c-108 -70 -274 -154 -297 -150 l-15 4 60 29 c133 65 255 144 255 165
l0 16 -57 18 c-32 10 -69 22 -83 26 -29 10 -100 25 -184 40 -176 30 -349 -19
-475 -136 -32 -30 -61 -54 -65 -54 -3 0 -6 7 -6 16 0 9 32 49 70 88 l70 72 63
32 c34 18 94 39 132 46 l70 14 70 -5 c39 -3 78 -10 87 -14z m-3782 -6 c31 -5
81 -21 112 -36 l57 -28 76 -71 c41 -38 85 -84 97 -101 l22 -30 -30 -24 c-34
-27 -110 -65 -174 -87 -68 -24 -83 -18 -18 7 31 12 77 37 102 54 l46 33 0 18
c0 20 -68 96 -117 130 -17 12 -62 34 -100 49 l-68 26 -136 1 -136 0 -39 -12
c-216 -65 -275 -75 -290 -50 l-7 11 19 14 c21 15 96 40 164 53 87 17 105 22
125 30 72 29 167 33 295 13z m3130 -325 c118 -35 360 -178 434 -256 l28 -31
-37 -15 c-21 -9 -45 -16 -54 -15 l-16 0 23 11 c30 15 28 32 -5 48 -16 8 -41
23 -58 35 -91 62 -208 122 -275 143 -19 5 -51 15 -71 21 -19 6 -74 11 -121 11
l-85 0 -64 -21 c-35 -11 -87 -33 -115 -49 l-51 -28 -13 8 -13 8 6 16 c7 17 98
79 144 97 15 6 37 15 48 20 44 19 227 17 295 -3z m-2430 -5 c67 -21 154 -71
200 -113 22 -20 40 -40 40 -44 0 -27 -130 -143 -192 -173 -66 -31 -97 -43
-116 -43 -9 0 10 14 44 30 64 31 140 92 174 141 l21 29 -5 18 c-3 9 -35 32
-70 50 l-64 33 -91 16 -91 16 -57 -12 c-159 -34 -248 -73 -384 -164 -80 -54
-149 -70 -116 -27 40 52 291 199 407 239 l55 19 100 -1 100 0 45 -14z m1381
-46 l-12 -12 7 18 c3 10 9 15 12 12 3 -3 0 -11 -7 -18z m1679 13 c-8 -5 -22
-10 -30 -10 l-15 0 15 10 c8 5 22 10 30 10 l15 0 -15 -10z m-93 -26 c-3 -3
-12 -4 -19 -1 l-13 5 19 1 c11 1 17 -2 13 -5z m-1854 -50 c18 -9 51 -36 75
-61 l42 -45 0 -47 0 -47 -27 -26 c-34 -31 -66 -48 -90 -48 l-18 0 22 18 c42
33 58 127 27 170 l-15 22 -59 0 -58 0 -31 -26 -31 -26 0 22 c0 31 37 78 73 95
42 18 52 18 90 -1z m472 -14 c-3 -5 -11 -10 -16 -10 -6 0 -7 5 -4 10 3 6 11
10 16 10 6 0 7 -4 4 -10z m165 -95 c68 -19 137 -53 220 -109 84 -56 201 -149
243 -193 l28 -30 -13 -10 c-7 -6 -31 -13 -53 -16 l-40 -6 18 10 c9 5 17 16 17
23 0 16 -161 140 -246 190 -74 43 -149 71 -231 87 l-63 12 -52 -6 c-86 -9
-144 -25 -197 -52 l-50 -25 -15 6 c-9 3 -16 14 -16 24 l0 18 68 34 c127 66
252 80 382 43z m-1108 1 c81 -20 157 -57 202 -100 l40 -37 -16 -26 c-9 -15
-44 -55 -79 -90 l-64 -64 -60 -29 c-33 -16 -73 -32 -90 -35 l-30 -6 49 26 c27
14 71 44 97 66 49 41 119 128 119 148 0 16 -57 48 -120 68 l-55 16 -105 1
-105 0 -51 -16 c-93 -29 -195 -86 -303 -168 -42 -32 -88 -63 -103 -69 l-27
-10 -6 8 c-12 20 230 207 340 264 123 63 249 81 367 53z m2133 -106 c-3 -5
-13 -10 -21 -10 -8 0 -12 5 -9 10 3 6 13 10 21 10 8 0 12 -4 9 -10z m-65 -20
c-8 -5 -22 -10 -30 -10 l-15 0 15 10 c8 5 22 10 30 10 l15 0 -15 -10z m-80
-20 c-8 -5 -22 -9 -30 -9 l-15 0 20 9 c27 12 43 12 25 0z m-2723 -17 c-4 -3
-10 -3 -14 0 -3 4 0 7 7 7 7 0 10 -3 7 -7z m2202 -207 c-2 -2 -17 -6 -34 -10
l-30 -7 15 11 c14 9 59 15 49 6z m-1579 -26 c-8 -5 -22 -10 -30 -10 l-15 0 15
10 c8 5 22 10 30 10 l15 0 -15 -10z" />
  </g>
  <g transform="translate(0.000000,669.000000) scale(0.100000,-0.100000)" fill="#dbdbdb" stroke="none">
    <path d="M1654 5973 c-248 -123 -370 -241 -443 -426 -6 -15 -11 -43 -11 -62 0
-19 -5 -37 -10 -40 -11 -7 -14 -48 -3 -58 8 -8 33 39 33 63 0 10 17 51 37 92
l37 73 65 65 c78 78 178 146 293 200 l83 39 3 -19 c3 -19 -39 -195 -57 -235
-4 -11 -26 -56 -47 -100 l-39 -80 -62 -65 -62 -66 -62 -32 c-34 -18 -70 -32
-80 -32 -10 0 -21 -4 -24 -10 -3 -5 -19 -10 -36 -10 -16 0 -29 -4 -29 -10 l0
-10 42 0 c45 0 80 9 173 47 148 59 249 179 325 388 17 48 30 96 50 192 l22
103 -30 30 c-17 16 -32 30 -34 29 -2 0 -62 -30 -134 -66z" />
    <path d="M5200 6008 c1 -45 14 -59 90 -92 148 -66 273 -149 345 -229 l53 -59
25 -61 c41 -104 47 -130 47 -213 l0 -80 12 -12 c17 -17 55 -15 62 4 3 9 6 61
6 117 l0 102 -13 35 c-26 74 -68 141 -142 228 -25 29 -134 117 -195 156 -54
35 -260 136 -277 136 l-13 0 0 -32z" />
    <path d="M6053 5872 c-19 -12 -108 -196 -133 -277 -7 -22 -16 -49 -21 -60 -14
-35 -21 -78 -26 -147 l-5 -68 11 0 11 0 0 44 c0 25 5 48 10 51 6 3 10 17 10
31 0 13 4 32 9 42 5 9 21 49 37 87 38 97 86 195 96 195 5 0 11 -8 14 -17 4
-10 17 -43 31 -73 14 -30 34 -80 45 -110 11 -30 23 -64 27 -75 21 -51 31 -123
31 -214 l0 -99 -23 -69 c-13 -38 -42 -97 -65 -133 -23 -35 -42 -70 -42 -77 l0
-13 30 0 30 0 31 33 c34 35 99 141 99 161 0 6 4 16 9 22 12 13 31 119 31 173
0 148 -112 458 -204 563 l-32 37 -11 -7z" />
    <path d="M901 5813 c-17 -31 -31 -60 -31 -64 0 -3 -11 -26 -24 -50 -13 -24
-34 -75 -46 -114 -12 -38 -26 -78 -31 -87 -5 -10 -9 -33 -9 -52 0 -19 -4 -38
-10 -41 -12 -8 -13 -75 -1 -94 l9 -13 6 36 c3 20 9 52 12 71 3 19 10 38 15 41
5 3 9 16 9 29 0 13 5 27 10 30 6 3 10 14 10 23 0 10 26 71 59 136 l58 118 7
-25 c3 -14 19 -54 35 -89 15 -35 34 -79 40 -98 7 -19 17 -44 21 -55 5 -11 14
-42 22 -70 l13 -50 -1 -115 0 -115 -32 -69 c-18 -39 -50 -94 -72 -122 -43 -57
-50 -88 -23 -98 l17 -7 53 57 c29 30 53 52 53 47 0 -5 -9 -29 -21 -52 -19 -39
-27 -73 -45 -183 l-7 -38 10 0 c5 0 14 21 22 48 42 154 113 249 257 343 70 46
131 77 207 105 23 9 51 20 62 24 11 5 30 12 43 15 l22 6 0 -16 c0 -25 -67
-191 -108 -269 -45 -85 -60 -104 -132 -176 l-55 -55 -55 -26 c-84 -41 -108
-49 -140 -49 -17 0 -30 -5 -30 -11 l0 -11 53 5 c28 3 67 9 85 12 l32 7 0 -9
c0 -4 -19 -16 -42 -27 -71 -30 -139 -81 -219 -163 -99 -101 -135 -156 -174
-263 l-16 -46 3 -59 3 -60 8 30 c30 116 77 202 161 293 57 62 250 212 272 212
8 0 -2 -177 -14 -250 -23 -134 -83 -258 -171 -349 l-41 -43 -82 -42 c-45 -23
-84 -48 -86 -55 l-5 -14 24 6 c101 24 176 56 222 94 42 34 52 28 18 -10 -60
-66 -127 -170 -161 -252 -7 -16 -17 -39 -23 -50 -11 -22 -24 -214 -13 -204 4
4 11 35 17 69 20 125 105 267 264 438 l50 54 8 -53 c5 -30 11 -128 13 -219 l5
-164 -12 -45 c-17 -60 -63 -155 -97 -198 -15 -19 -57 -59 -94 -89 -38 -30 -68
-59 -68 -64 0 -6 13 -10 28 -10 l29 0 59 38 c126 82 214 214 244 369 l13 62
-7 108 c-5 99 -12 150 -34 273 l-8 45 -30 33 -30 32 -12 -12 -12 -12 0 10 c0
6 11 34 25 63 14 28 32 78 40 109 21 76 45 262 45 339 l0 63 -20 12 c-28 18
-25 31 9 46 42 18 141 108 185 166 31 42 93 160 127 241 19 47 59 177 59 194
l0 19 -20 5 c-11 3 -20 12 -20 21 l0 16 -24 0 c-14 0 -28 -4 -31 -10 -3 -5
-16 -10 -29 -10 -12 0 -26 -4 -31 -8 -6 -5 -26 -15 -45 -22 -19 -7 -68 -28
-108 -47 -41 -18 -76 -33 -78 -33 -15 0 -126 -79 -166 -118 l-48 -46 0 21 c0
12 4 24 8 27 5 3 14 29 21 58 l12 53 -15 140 -15 140 -21 59 c-48 140 -148
316 -179 316 -5 0 -23 -26 -40 -57z m206 -790 c-4 -3 -10 -3 -14 0 -3 4 0 7 7
7 7 0 10 -3 7 -7z" />
    <path d="M5310 5330 l0 -31 24 -22 c13 -12 45 -28 72 -36 27 -8 54 -17 59 -21
6 -4 21 -11 35 -15 14 -4 66 -28 115 -52 165 -81 254 -168 296 -292 l22 -66 6
-80 6 -80 33 -3 c18 -2 40 2 48 9 l14 11 0 37 c0 20 -9 71 -20 113 l-19 78
-38 57 c-62 92 -67 98 -98 134 -69 77 -148 127 -330 209 -56 26 -204 80 -217
80 -4 0 -8 -14 -8 -30z" />
    <path d="M544 5133 c-3 -10 -10 -29 -15 -43 -5 -14 -14 -47 -20 -75 -5 -27
-15 -70 -21 -95 -5 -25 -12 -78 -15 -117 l-5 -73 10 0 c6 0 12 24 15 53 7 68
16 117 27 142 5 11 14 44 20 73 12 53 26 66 37 35 4 -10 17 -31 30 -48 63 -81
78 -105 126 -200 98 -193 103 -347 17 -519 l-31 -63 6 -16 c4 -8 13 -18 22
-21 l15 -6 29 31 c42 45 87 143 105 229 l16 75 -12 75 c-19 112 -67 227 -144
340 -67 99 -163 215 -194 234 l-12 7 -6 -18z" />
    <path d="M6382 5088 c-96 -123 -157 -223 -213 -353 -12 -29 -40 -187 -34 -193
11 -11 25 16 35 67 15 78 79 200 172 325 l81 109 22 -89 c12 -49 28 -127 35
-174 l13 -86 -6 -64 c-9 -104 -21 -150 -56 -226 l-33 -72 -50 -48 c-27 -27
-56 -61 -64 -76 l-14 -27 11 -6 c23 -15 65 10 138 83 l76 77 26 60 c15 33 32
78 39 100 l13 40 0 140 -1 140 -32 133 -32 132 -33 35 c-18 19 -35 35 -38 35
-3 0 -27 -28 -55 -62z" />
    <path d="M460 4690 c0 -7 3 -10 7 -7 3 4 3 10 0 14 -4 3 -7 0 -7 -7z" />
    <path d="M5674 4655 c-10 -24 2 -43 46 -72 101 -69 221 -167 268 -218 67 -73
116 -162 137 -249 l17 -69 -5 -76 c-3 -42 -8 -85 -12 -97 l-7 -21 17 -16 16
-16 22 8 22 8 3 24 c2 13 8 29 12 34 5 6 12 40 16 75 l6 65 -12 64 -12 65 -30
55 c-17 31 -36 65 -42 76 -14 25 -92 123 -120 150 -63 60 -198 165 -213 165
-4 0 -19 9 -33 20 -14 11 -33 20 -42 20 -10 0 -18 5 -18 10 0 16 -30 12 -36
-5z" />
    <path d="M270 4316 l0 -44 38 -23 c170 -102 298 -206 352 -284 68 -99 94 -217
80 -363 l-8 -77 10 -12 c6 -7 25 -13 43 -13 l33 0 7 38 c4 20 9 79 12 130 l4
93 -20 43 c-12 23 -21 48 -21 54 0 7 -4 12 -10 12 -5 0 -10 9 -10 20 0 76
-175 263 -363 388 -26 18 -50 32 -53 32 -2 0 -22 11 -44 25 -22 14 -42 25 -45
25 -3 0 -5 -20 -5 -44z" />
    <path d="M6665 4332 c-22 -14 -78 -51 -125 -82 -46 -30 -120 -92 -165 -136
l-80 -81 -26 -54 c-49 -99 -57 -125 -66 -211 l-5 -48 11 0 c6 0 11 8 11 18 0
24 26 94 54 151 14 26 56 82 95 123 l71 76 113 76 c62 42 118 76 124 76 l11 0
-9 -37 c-5 -21 -9 -56 -9 -79 0 -23 -4 -54 -9 -70 -5 -16 -17 -63 -26 -104
-10 -41 -37 -111 -59 -155 l-40 -79 -63 -63 -64 -62 -74 -36 c-41 -19 -75 -40
-75 -45 0 -13 57 -13 65 0 3 6 16 10 28 10 34 1 123 50 182 100 56 48 121 137
153 210 44 98 67 205 81 374 l9 100 -28 28 c-16 15 -32 28 -37 27 -4 0 -26
-12 -48 -27z" />
    <path d="M5702 4058 c-5 -7 -13 -33 -16 -58 -4 -25 -11 -74 -17 -110 -18 -119
-21 -161 -13 -188 l8 -27 7 65 c13 111 37 230 46 230 7 0 82 -84 132 -147 97
-124 154 -245 170 -363 l9 -65 -10 -70 c-5 -38 -16 -85 -24 -104 -8 -18 -14
-48 -14 -66 l0 -33 25 -5 26 -4 20 41 20 41 -6 -35 c-3 -19 -8 -56 -11 -82
l-7 -48 10 0 c6 0 16 21 24 48 20 72 66 151 123 210 l51 53 70 38 c101 55 183
84 313 110 68 14 102 14 102 0 0 -5 -12 -31 -26 -57 -62 -111 -139 -218 -203
-281 l-69 -68 -72 -37 c-39 -20 -82 -36 -95 -36 -13 0 -27 -4 -30 -10 -3 -5
-15 -10 -26 -10 -10 0 -19 -5 -19 -11 l0 -11 33 5 c143 26 174 35 239 71 87
49 217 184 276 286 73 129 89 158 101 187 l13 31 -32 31 -33 31 -21 -4 c-11
-3 -55 -10 -96 -16 -167 -26 -384 -117 -469 -196 -45 -41 -121 -154 -121 -179
0 -8 -4 -15 -9 -15 l-10 0 10 33 c6 17 15 42 21 54 l11 23 -1 92 -1 93 -20 65
c-22 70 -85 183 -147 266 -36 48 -219 244 -228 244 -2 0 -8 -6 -14 -12z" />
    <path d="M180 3572 l0 -28 33 -19 c17 -11 48 -23 67 -26 168 -29 233 -48 360
-105 l64 -29 57 -56 58 -56 25 -54 c24 -52 56 -158 56 -187 0 -8 -8 -21 -17
-28 l-18 -13 50 -1 51 0 12 12 c20 20 14 74 -17 140 -16 35 -36 79 -44 98 -58
131 -167 219 -382 309 -56 24 -274 71 -325 71 l-30 0 0 -28z" />
    <path d="M1378 3368 c-32 -41 -60 -81 -83 -117 -5 -9 -12 -18 -15 -21 -20 -20
-99 -177 -125 -250 -9 -25 -18 -81 -21 -125 l-6 -80 11 15 c6 8 11 25 11 37 0
28 46 155 72 202 12 20 32 56 46 81 14 25 34 57 46 72 12 14 34 45 49 67 16
23 32 41 36 41 4 0 18 -39 30 -87 12 -49 26 -104 31 -124 6 -20 10 -94 10
-165 l0 -129 -15 -43 c-29 -83 -67 -145 -131 -213 -35 -37 -64 -75 -64 -84 l0
-17 32 8 c36 7 122 76 161 127 36 48 77 125 77 145 0 10 4 22 9 28 12 14 31
120 31 178 0 93 -50 336 -86 422 l-14 34 -15 0 -15 0 0 20 0 20 -14 0 c-7 0
-29 -19 -48 -42z" />
    <path d="M5543 3337 c-36 -118 -54 -202 -69 -334 l-6 -53 11 0 11 0 0 44 c0
25 4 47 9 50 5 3 11 23 14 43 2 21 12 63 21 93 9 30 19 70 22 87 4 18 12 37
18 42 l12 10 66 -102 c112 -172 154 -278 164 -410 l7 -82 -13 -60 c-6 -33 -25
-89 -41 -124 -17 -35 -29 -71 -27 -80 l3 -16 31 -3 30 -3 27 58 c14 32 29 73
33 91 8 38 24 43 24 7 0 -14 -4 -25 -10 -25 -5 0 -10 -11 -10 -25 0 -43 29
-29 50 25 43 107 137 207 245 259 33 16 97 39 140 51 l80 22 110 7 c61 4 115
6 122 3 l12 -4 -36 -51 c-64 -93 -105 -141 -182 -215 l-76 -73 -75 -35 c-41
-20 -83 -40 -92 -45 -10 -5 -36 -9 -57 -9 -22 0 -43 -5 -47 -11 l-6 -11 73 5
c92 5 135 17 217 59 l65 33 80 74 c98 93 257 296 257 329 0 7 -7 12 -15 12 -8
0 -19 9 -25 20 l-11 20 -99 0 c-91 0 -176 -11 -225 -30 -38 -14 -90 -28 -130
-35 -22 -4 -69 -21 -105 -38 l-65 -30 -56 -58 -57 -57 -33 -68 -34 -68 -3 16
c-2 9 2 26 7 37 16 30 13 163 -5 236 -9 36 -37 106 -63 157 -75 149 -217 338
-253 338 l-13 0 -22 -73z" />
    <path d="M300 2995 c-17 -20 -7 -41 32 -65 l33 -20 67 0 c73 0 223 -23 302
-45 83 -25 159 -68 211 -120 l51 -50 26 -55 c39 -83 48 -109 48 -135 l0 -25
-29 0 c-16 0 -42 -7 -57 -15 l-29 -16 75 6 c41 4 88 11 103 17 l28 11 -7 31
c-4 17 -10 37 -14 46 -4 8 -12 26 -18 40 -29 75 -66 139 -100 175 -93 99 -169
144 -285 170 -34 8 -80 19 -102 26 -56 16 -210 38 -271 38 l-52 1 -12 -15z" />
    <path d="M1673 2962 c-12 -26 -34 -74 -48 -107 -15 -33 -30 -67 -34 -75 -6
-13 -19 -53 -52 -166 -5 -17 -9 -59 -9 -95 l0 -64 10 15 c5 8 10 28 10 43 0
44 48 182 103 297 l50 105 7 -25 c4 -14 25 -61 47 -105 77 -158 106 -298 91
-439 l-8 -75 -24 -55 c-13 -30 -43 -79 -65 -110 -44 -59 -50 -83 -26 -92 31
-12 92 44 149 136 38 62 48 93 67 198 l12 73 -12 82 c-18 118 -27 144 -110
320 -45 93 -110 187 -130 187 -3 0 -16 -22 -28 -48z" />
    <path d="M5266 2977 c-21 -35 -45 -83 -83 -167 -35 -76 -40 -89 -54 -135 -6
-22 -15 -50 -20 -62 -11 -30 -24 -190 -14 -181 7 7 20 52 36 128 5 25 19 70
31 100 24 61 105 220 118 234 l8 8 20 -43 c78 -171 122 -329 122 -438 0 -102
-34 -207 -96 -302 -24 -36 -44 -73 -44 -82 l0 -17 25 0 25 0 28 28 c38 36 84
106 112 167 l23 50 9 75 c5 41 6 109 2 150 l-6 75 -35 105 c-60 180 -145 340
-181 340 -4 0 -16 -15 -26 -33z" />
    <path d="M2018 2608 c-14 -27 -29 -144 -29 -238 0 -92 3 -96 12 -15 5 39 11
94 15 123 l6 52 12 0 c34 0 232 -242 278 -340 31 -66 36 -82 48 -154 l9 -57
-9 -78 -9 -79 -22 -46 -22 -47 11 -25 12 -24 17 0 c31 0 41 14 72 86 l29 71 7
72 7 72 -12 47 c-7 26 -14 54 -18 62 -3 8 -4 23 -3 33 3 25 -60 147 -112 214
-59 78 -176 202 -237 253 l-49 41 -13 -23z" />
    <path d="M4868 2543 c-108 -105 -175 -193 -221 -288 -50 -102 -54 -115 -61
-191 l-6 -69 20 40 c11 22 20 46 20 53 1 52 106 209 218 324 l96 98 8 -8 c20
-20 26 -310 7 -402 -22 -108 -90 -238 -153 -292 -17 -14 -44 -38 -61 -52 -16
-14 -33 -26 -37 -26 -5 0 -8 -9 -8 -20 l0 -20 19 0 c38 0 114 51 191 129 54
54 91 118 125 211 l16 45 6 140 c3 77 0 188 -5 247 l-10 108 -30 30 c-17 16
-34 30 -38 30 -3 0 -47 -39 -96 -87z" />
    <path d="M5840 2434 c-14 -3 -38 -11 -55 -19 -16 -7 -57 -26 -90 -41 -32 -15
-79 -45 -102 -67 -39 -35 -96 -118 -133 -190 l-14 -27 13 -13 13 -12 36 45
c20 25 62 70 93 101 l57 56 64 30 c69 33 96 41 178 53 63 8 323 -4 358 -17
l24 -9 -34 -35 c-48 -52 -153 -139 -223 -186 -82 -55 -189 -103 -230 -103 -14
0 -25 -4 -25 -10 l0 -10 59 0 c33 0 63 5 66 10 3 6 15 10 25 10 22 0 189 84
217 109 10 9 36 29 58 46 63 47 205 186 205 201 0 8 -6 14 -14 14 -8 0 -17 9
-21 19 l-6 19 -37 8 c-20 5 -98 9 -172 9 -74 0 -169 3 -210 7 -41 4 -86 4
-100 2z" />
    <path d="M877 2421 l-219 -6 -14 -20 -15 -20 22 -18 c34 -27 66 -31 159 -19
110 15 221 15 313 1 l72 -11 81 -39 82 -38 43 -49 c44 -49 89 -123 89 -146 0
-15 -24 -26 -105 -51 -33 -10 -64 -22 -70 -28 l-10 -10 65 7 c36 3 81 12 100
19 83 31 120 50 120 61 0 6 -9 22 -20 36 -11 14 -20 29 -20 33 0 15 -63 101
-100 137 -51 51 -111 96 -150 113 -19 9 -53 23 -75 33 -50 22 -78 23 -348 15z" />
    <path d="M4415 2145 c-68 -15 -190 -55 -259 -84 -119 -52 -248 -162 -293 -252
-28 -54 -53 -128 -53 -153 0 -11 -5 -34 -12 -52 -6 -17 -8 -40 -4 -50 l7 -18
14 28 c8 16 15 38 15 50 0 13 14 51 31 86 l31 64 71 71 72 71 70 36 c83 43
241 97 308 105 l48 6 -25 -56 c-78 -176 -174 -311 -280 -392 -47 -36 -124 -75
-147 -75 -10 0 -21 -4 -24 -10 -3 -5 -20 -10 -36 -10 l-30 0 6 -10 c3 -5 26
-10 50 -10 24 0 47 5 50 10 3 6 18 10 32 10 14 0 60 16 102 36 l76 37 71 71
c74 74 139 168 188 271 16 33 33 68 37 77 5 10 9 27 9 37 0 11 5 23 10 26 13
8 13 55 1 55 -5 0 -13 9 -16 20 l-6 20 -27 -1 c-15 -1 -54 -7 -87 -14z" />
    <path d="M2460 2137 c0 -15 58 -87 68 -85 11 3 82 -12 157 -33 83 -23 87 -25
188 -74 l77 -37 56 -51 57 -51 32 -71 c41 -87 55 -139 55 -199 l0 -46 44 0
c25 0 48 4 51 10 8 13 -12 121 -35 187 -10 29 -30 73 -45 98 -60 102 -213 229
-333 275 -31 12 -66 25 -77 30 -77 29 -208 60 -257 60 l-38 0 0 -13z" />
    <path d="M5275 1984 c-38 -7 -98 -28 -132 -46 l-63 -32 -70 -72 -70 -72 0 -26
0 -26 16 0 c9 0 43 25 76 55 l59 55 72 34 72 34 77 13 77 13 83 -13 c84 -12
152 -26 198 -41 115 -36 140 -45 140 -50 0 -12 -156 -106 -260 -157 -78 -38
-147 -62 -209 -70 l-45 -6 19 -8 c28 -11 73 -11 109 0 17 5 51 15 76 21 72 19
227 96 334 166 l98 65 -41 38 -41 38 -62 17 c-35 10 -77 22 -94 27 -17 5 -44
9 -62 9 -17 0 -34 5 -37 10 -3 6 -17 10 -31 10 -14 0 -33 4 -42 9 -9 5 -53 11
-97 14 l-80 5 -70 -14z" />
    <path d="M1485 1978 c-22 -6 -49 -14 -60 -18 -20 -8 -38 -13 -125 -30 -76 -15
-147 -39 -171 -59 l-23 -19 13 -16 13 -16 45 0 c39 0 137 24 253 62 l35 11
130 0 130 0 68 -26 c38 -15 83 -37 100 -49 36 -25 117 -108 117 -120 0 -11
-79 -67 -120 -85 -19 -8 -57 -20 -85 -27 -27 -7 -50 -17 -52 -22 l-3 -9 62 6
c92 9 163 36 246 91 l42 29 0 21 0 21 -92 92 -93 91 -60 29 c-32 16 -84 33
-115 38 -87 14 -211 16 -255 5z" />
    <path d="M4605 1662 c-48 -4 -142 -48 -207 -94 l-38 -28 0 -24 0 -25 19 -6 20
-6 53 30 c29 16 82 39 117 50 l64 21 75 0 c42 0 91 -4 109 -10 18 -5 50 -15
71 -21 70 -22 185 -82 277 -144 17 -12 43 -27 58 -35 l29 -14 -34 -15 c-60
-25 -67 -27 -175 -56 -27 -7 -53 -13 -123 -26 -30 -6 -57 -13 -60 -16 -8 -9
180 6 214 16 17 5 51 15 76 21 25 7 54 16 65 20 11 4 38 13 60 20 22 7 46 17
53 23 l13 10 -33 35 c-80 83 -309 219 -443 262 l-40 13 -95 1 c-52 1 -108 0
-125 -2z" />
    <path d="M2120 1639 c-125 -43 -385 -199 -411 -247 l-13 -22 11 -11 10 -10 40
10 c22 6 64 28 94 48 135 92 221 129 379 163 l55 12 84 -16 84 -16 63 -32 c35
-18 66 -38 69 -46 l5 -14 -62 -62 -63 -63 -68 -32 c-37 -18 -90 -36 -117 -40
-28 -5 -54 -12 -58 -16 -11 -12 159 1 193 15 79 33 121 58 173 103 68 60 92
89 92 113 0 39 -133 132 -240 167 l-45 15 -110 0 -110 0 -55 -19z" />
    <path d="M3443 1535 c-17 -8 -41 -28 -52 -44 l-21 -29 0 -41 c0 -23 2 -41 4
-41 2 0 20 16 39 35 l35 35 50 0 51 0 15 -22 c30 -42 13 -124 -30 -153 -33
-21 -30 -35 7 -35 36 0 64 13 102 48 l27 26 0 57 0 57 -42 45 c-70 74 -119 90
-185 62z" />
    <path d="M3980 1444 c-65 -8 -125 -27 -192 -62 l-68 -34 0 -29 0 -29 24 -6 24
-6 51 27 c89 44 205 63 294 46 131 -25 228 -74 385 -194 l93 -70 -10 -10 c-6
-6 -30 -14 -56 -19 -25 -4 -64 -12 -88 -16 -23 -5 -49 -12 -56 -16 -7 -5 -33
-8 -57 -8 -24 1 -46 -3 -50 -9 l-6 -11 68 5 c67 5 174 20 224 32 14 4 41 9 60
12 20 3 44 11 55 19 l19 14 -35 36 c-82 86 -277 229 -374 273 -95 44 -212 65
-305 55z" />
    <path d="M2815 1421 c-113 -33 -259 -123 -402 -249 -61 -52 -74 -74 -53 -87
20 -12 65 10 146 71 117 89 215 143 308 172 l51 16 95 -1 95 0 55 -17 c30 -9
70 -25 88 -36 l33 -20 -33 -46 c-32 -45 -107 -114 -158 -146 -37 -22 -142 -58
-173 -58 -14 0 -29 -4 -32 -10 l-6 -10 56 0 56 0 77 25 c42 14 93 35 113 48
76 46 189 166 189 200 0 28 -65 86 -128 115 -77 35 -156 51 -242 51 l-75 -1
-60 -17z" />
  </g>
</svg>